{"title":"Torchwood.S04E03.[Miracle.Day].HDTV.272p.H264.AAC-k3n.m4v","uid":6559748,"size":121211297,"categoryP":"video","categoryS":"tv_shows","magnet":"?xt=urn:btih:0920002221703c3493f6b56df00e093b9c9c574d&amp;dn=Torchwood.S04E03.%5BMiracle.Day%5D.HDTV.272p.H264.AAC-k3n.m4v&amp;tr=udp%3A%2F%2Ftracker.openbittorrent.com%3A80&amp;tr=udp%3A%2F%2Fopen.demonii.com%3A1337&amp;tr=udp%3A%2F%2Ftracker.coppersurfer.tk%3A6969&amp;tr=udp%3A%2F%2Fexodus.desync.com%3A6969","seeders":1,"leechers":0,"uploader":"k3nd00d","files":-1,"time":1311420101,"description":"Episode title: Rendition\n\n\nGeneral\nComplete name                    : D:\\_TV\\__M4V_UPs\\Torchwood.S04E03.[Miracle.Day].HDTV.272p.H264.AAC-k3n.m4v\nFormat                           : MPEG-4\nFormat profile                   : Base Media / Version 2\nCodec ID                         : mp42\nFile size                        : 116 MiB\nDuration                         : 55mn 34s\nOverall bit rate                 : 291 Kbps\n\nVideo\nID                               : 1\nFormat                           : AVC\nFormat/Info                      : Advanced Video Codec\nFormat profile                   : &lt;a class=&quot;__cf_email__&quot; href=&quot;/cdn-cgi/l/email-protection&quot; data-cfemail=&quot;30725143555c595e55707c021e01&quot;&gt;[email&amp;#160;protected]&lt;/a&gt;&lt;script cf-hash='f9e31' type=&quot;text/javascript&quot;&gt;\n/* &lt;![CDATA[ */!function(){try{var t=&quot;currentScript&quot;in document?document.currentScript:function(){for(var t=document.getElementsByTagName(&quot;script&quot;),e=t.length;e--;)if(t[e].getAttribute(&quot;cf-hash&quot;))return t[e]}();if(t&amp;&amp;t.previousSibling){var e,r,n,i,c=t.previousSibling,a=c.getAttribute(&quot;data-cfemail&quot;);if(a){for(e=&quot;&quot;,r=parseInt(a.substr(0,2),16),n=2;a.length-n;n+=2)i=parseInt(a.substr(n,2),16)^r,e+=String.fromCharCode(i);e=document.createTextNode(e),c.parentNode.replaceChild(e,c)}}}catch(u){}}();/* ]]&gt; */&lt;/script&gt;\nFormat settings, CABAC           : No\nFormat settings, ReFrames        : 2 frames\nCodec ID                         : avc1\nCodec ID/Info                    : Advanced Video Coding\nDuration                         : 55mn 34s\nBit rate mode                    : Variable\nBit rate                         : 240 Kbps\nWidth                            : 480 pixels\nHeight                           : 272 pixels\nDisplay aspect ratio             : 16:9\nFrame rate mode                  : Variable\nFrame rate                       : 23.976 fps\nMinimum frame rate               : 23.974 fps\nMaximum frame rate               : 23.981 fps\nColor space                      : YUV\nChroma subsampling               : 4:2:0\nBit depth                        : 8 bits\nScan type                        : Progressive\nBits/(Pixel*Frame)               : 0.077\nStream size                      : 95.4 MiB (83%)\nWriting library                  : x264 core 79\n\nAudio\nID                               : 2\nFormat                           : AAC\nFormat/Info                      : Advanced Audio Codec\nFormat profile                   : LC\nCodec ID                         : 40\nDuration                         : 55mn 34s\nBit rate mode                    : Variable\nBit rate                         : 48.0 Kbps\nMaximum bit rate                 : 63.9 Kbps\nChannel(s)                       : 2 channels\nChannel positions                : Front: L R\nSampling rate                    : 24.0 KHz\nCompression mode                 : Lossy\nStream size                      : 19.1 MiB (17%)\n","torrent":{"xt":"urn:btih:0920002221703c3493f6b56df00e093b9c9c574d","amp;dn":"Torchwood.S04E03.%5BMiracle.Day%5D.HDTV.272p.H264.AAC-k3n.m4v","amp;tr":["udp%3A%2F%2Ftracker.openbittorrent.com%3A80","udp%3A%2F%2Fopen.demonii.com%3A1337","udp%3A%2F%2Ftracker.coppersurfer.tk%3A6969","udp%3A%2F%2Fexodus.desync.com%3A6969"],"infoHash":"0920002221703c3493f6b56df00e093b9c9c574d","infoHashBuffer":{"type":"Buffer","data":[9,32,0,34,33,112,60,52,147,246,181,109,240,14,9,59,156,156,87,77]},"announce":[],"urlList":[]}}